<svg xmlns="http://www.w3.org/2000/svg" viewBox="0 0 128 128" width="128" height="128">
  <defs><g id="tw" fill="#009cb7">
    <path d="M94.22,65.02h.01c0-2.63,2.14-4.77,4.77-4.77h2.07v-5.01h-2.07c-5.39,0-9.78,4.39-9.78,9.78h1.66l7,10.59.05.06c.9,1.21,1.04,2.73.36,4.08-.68,1.35-1.98,2.15-3.48,2.15h-5.9l.29,11.21h-1.82c-3.43,0-6.73-1.62-8.82-4.34l-2.56-3.32c1.23-.61,2.62-.96,4.09-.96h2.37v-2.78h-2.37c-3.69,0-6.99,1.68-9.19,4.31V31.48h-2.78v54.53c-2.2-2.63-5.5-4.31-9.19-4.31h-2.37v2.78h2.37s.09,0,.14,0c-.2,3.19-2.87,5.73-6.11,5.73h-8.13l4.85-5.57c3.68-.34,6.58-3.44,6.58-7.21v-1.88h-2.78v1.88c0,2.46-2,4.46-4.46,4.46h-4.88c-1.51,0-2.81-.8-3.48-2.15-.68-1.35-.54-2.87.36-4.08l.05-.06,8.91-15.18h5.83c2.63,0,4.77,2.14,4.77,4.77h5.01c0-5.39-4.39-9.78-9.78-9.78h-22.67v5.01h13.61l-8.01,13.64c-1.48,2.03-1.7,4.68-.57,6.93,1.14,2.27,3.43,3.69,5.97,3.69h1.83l-7.24,8.32h10.56v11.33h3.4c5.07,0,9.19-4.12,9.19-9.19v-10.18c3.63,1.23,6.25,4.67,6.25,8.7v25.79h2.78v-19.48h0v-6.3c0-3.21,1.65-6.03,4.15-7.68v9.92c0,2.76,2.25,5.01,5.01,5.01h5.07v-5.22c.74.12,1.5.19,2.26.19h4.67l-.29-11.21h3.04c2.54,0,4.83-1.41,5.97-3.69,1.13-2.26.91-4.92-.59-6.96l-5.97-9.02ZM52.94,93.01c2.29,0,4.38-.87,5.96-2.29-.7,3.16-3.5,5.54-6.85,5.59v-3.3h.89ZM52.66,101.56h-.61v-2.47c2.71-.03,5.17-1.15,6.94-2.95-.48,3.06-3.13,5.41-6.33,5.41ZM77.82,92.1c1.31,1.23,2.85,2.2,4.52,2.85v1.13h-4.51c0-.05,0-.1,0-.16v-3.82Z"/>
    <path d="M83.19,60.43h3.39v-5.01h-3.39c-5.39,0-9.78,4.39-9.78,9.78h5.01c0-2.63,2.14-4.77,4.77-4.77Z"/>
    <circle cx="39.14" cy="65.2" r="2.15"/><circle cx="99.35" cy="65.55" r="2.15"/>
    <circle cx="55.75" cy="65.2" r="2.15"/><circle cx="83.24" cy="65.55" r="2.15"/>
    <polygon points="54.39 117.52 56.68 119.11 61.64 111.96 58.25 111.96"/>
    <polygon points="77.35 111.96 82.32 119.11 84.6 117.52 80.74 111.96"/></g></defs>
  <g opacity="0.85">
  <use href="#tw" transform="translate(0.72,-1.98) scale(0.45)"/>
  <use href="#tw" transform="translate(127.28,-1.98) scale(-0.45,0.45)"/>
  <use href="#tw" transform="translate(63.28,62.02) scale(-0.45,0.45)"/>
  <use href="#tw" transform="translate(64.72,62.02) scale(0.45)"/>
  </g>
</svg>
