<?xml version="1.0" encoding="UTF-8"?>
<svg id="Layer_1" xmlns="http://www.w3.org/2000/svg" version="1.1" viewBox="0 0 792 612">
  <!-- Generator: Adobe Illustrator 30.5.1, SVG Export Plug-In . SVG Version: 2.1.4 Build 3)  -->
  <defs>
    <style>
      .st0 {
        fill: #f5e7e6;
      }

      .st1 {
        fill: #009cb7;
      }
    </style>
  </defs>
  <path class="st0" d="M420.25,157.44h-70.31c-51.29,0-92.87,41.58-92.87,92.87v111.39c0,51.29,41.58,92.87,92.87,92.87h70.31c51.29,0,92.87-41.58,92.87-92.87v-111.39c0-51.29-41.58-92.87-92.87-92.87Z"/>
  <path class="st1" d="M420.25,157.44c51.29,0,92.87,41.58,92.87,92.87v111.39c0,51.29-41.58,92.87-92.87,92.87h-70.31c-51.29,0-92.87-41.58-92.87-92.87v-111.39c0-51.29,41.58-92.87,92.87-92.87h70.31M420.25,147.44h-70.31c-56.72,0-102.87,46.15-102.87,102.87v111.39c0,56.72,46.15,102.87,102.87,102.87h70.31c56.72,0,102.87-46.15,102.87-102.87v-111.39c0-56.72-46.15-102.87-102.87-102.87h0Z"/>
  <path class="st1" d="M311.04,339.09h-17.53c-9.14,0-17.36-5.07-21.45-13.24-4.05-8.08-3.26-17.59,2.05-24.88l38.68-65.51,8.61,5.08-38.95,65.96-.16.22c-3.24,4.34-3.72,9.81-1.29,14.65,2.43,4.84,7.1,7.72,12.51,7.72h17.53c8.82,0,16-7.18,16-16v-6.74h10v6.74c0,14.34-11.66,26-26,26Z"/>
  <circle class="st1" cx="335.29" cy="265.36" r="7.72"/>
  <path class="st1" d="M340.57,399.5h-16.38v-21.51h10v11.51h6.38c7.16,0,12.99-5.83,12.99-12.99v-.85l9.08-26.05-68.5,17.64,13.18-31.9,9.24,3.82-5.54,13.41,67.22-17.31-14.69,42.13c-.47,12.26-10.6,22.1-22.97,22.1Z"/>
  <polygon class="st1" points="359.26 378.74 316.21 378.74 316.21 352.81 326.21 352.81 326.21 368.74 359.26 368.74 359.26 378.74"/>
  <path class="st1" d="M371.73,275.14l-17.4-4.61,1.31-4.97c1.76-6.65-2.01-13.45-8.58-15.48l-.49-.17-37.04-13.83,6.29-16.86,36.82,13.74c15.67,4.99,24.62,21.27,20.4,37.2l-1.31,4.96Z"/>
  <rect class="st1" x="272.57" y="204.37" width="18" height="60.66" transform="translate(-27.87 431.2) rotate(-72.23)"/>
  <path class="st1" d="M390.22,376.51h-10v-26.36c0-9.25-7.53-16.78-16.78-16.78-13.2,0-25.34-6.63-32.46-17.75l-8.61-13.43,8.42-5.4,8.61,13.43c5.28,8.23,14.26,13.15,24.04,13.15,14.77,0,26.78,12.01,26.78,26.78v26.36Z"/>
  <path class="st1" d="M464.3,401.92h-29.92c-12.66,0-22.96-10.3-22.96-22.95v-56.5l9.2,14.29c.5.76,12.1,17.73,40.58,15.38l-12.5-22.39h27.92c5.29,0,9.87-2.83,12.24-7.56,2.37-4.73,1.9-10.09-1.27-14.33l-.33-.5-30.38-52.89,8.67-4.98,30.24,52.65c5.23,7.2,6,16.57,2,24.54-4.04,8.06-12.16,13.07-21.18,13.07h-10.89l11.2,20.06-6.9,1.24c-1.97.35-3.88.63-5.74.84v40.03ZM421.42,351.53v27.43c0,7.14,5.81,12.95,12.96,12.95h19.92v-29.56c-15.4-.33-26.11-5.7-32.88-10.82Z"/>
  <path class="st1" d="M427.68,278.1c0,3.93,4.15,7.12,9.28,7.12s9.28-3.19,9.28-7.12"/>
  <rect class="st1" x="457.22" y="329.72" width="1.35" height="9.84"/>
  <path class="st1" d="M473.58,270.06h-63.04v-18h45.06c.51-12.65,10.96-22.79,23.74-22.79h38.16v18h-38.16c-3.18,0-5.76,2.58-5.76,5.76v17.03Z"/>
  <rect class="st1" x="420.13" y="369.95" width="36.15" height="10"/>
  <rect class="st1" x="443" y="376.04" width="17.47" height="20.82"/>
  <circle class="st1" cx="275.62" cy="265.36" r="7.72"/>
  <circle class="st1" cx="491.8" cy="270.81" r="7.6"/>
  <rect class="st1" x="380.22" y="148.05" width="10" height="315.96"/>
  <polygon class="st1" points="344.84 437.04 330.97 457.02 339.19 462.73 357.02 437.04 344.84 437.04"/>
  <polygon class="st1" points="425.6 437.04 413.43 437.04 431.26 462.73 439.47 457.02 425.6 437.04"/>
</svg>