<?xml version="1.0" encoding="UTF-8"?>
<svg id="Layer_1" xmlns="http://www.w3.org/2000/svg" version="1.1" viewBox="0 0 792 612">
  <!-- Generator: Adobe Illustrator 30.5.1, SVG Export Plug-In . SVG Version: 2.1.4 Build 3)  -->
  <defs>
    <style>
      .st0 {
        fill: #f5e7e6;
      }

      .st1 {
        fill: #009cb7;
      }
    </style>
  </defs>
  <path class="st0" d="M420.25,157.44h-70.31c-51.29,0-92.87,41.58-92.87,92.87v111.39c0,51.29,41.58,92.87,92.87,92.87h70.31c51.29,0,92.87-41.58,92.87-92.87v-111.39c0-51.29-41.58-92.87-92.87-92.87Z"/>
  <path class="st1" d="M420.25,157.44c51.29,0,92.87,41.58,92.87,92.87v111.39c0,51.29-41.58,92.87-92.87,92.87h-70.31c-51.29,0-92.87-41.58-92.87-92.87v-111.39c0-51.29,41.58-92.87,92.87-92.87h70.31M420.25,147.44h-70.31c-56.72,0-102.87,46.15-102.87,102.87v111.39c0,56.72,46.15,102.87,102.87,102.87h70.31c56.72,0,102.87-46.15,102.87-102.87v-111.39c0-56.72-46.15-102.87-102.87-102.87h0Z"/>
  <path class="st1" d="M414.91,255.64h-18c0-18.83,15.32-34.16,34.16-34.16h17.23v18h-17.23c-8.91,0-16.16,7.25-16.16,16.16Z"/>
  <path class="st1" d="M470.24,255.64h-18c0-18.83,15.32-34.16,34.16-34.16h26.26v18h-26.26c-8.91,0-16.16,7.25-16.16,16.16Z"/>
  <path class="st1" d="M455.16,403.35h-24.38c-12.44,0-22.56-10.12-22.56-22.56v-28.04l48.85,7.75-11.02-31.04h26.06c5.14,0,9.58-2.74,11.88-7.33,2.3-4.59,1.84-9.79-1.23-13.9l-.32-.49-30.24-52.37,8.66-5,30.1,52.13c5.14,7.07,5.9,16.29,1.97,24.12-3.97,7.93-11.95,12.85-20.82,12.85h-11.9l11.91,33.55-53.9-8.55v16.33c0,6.93,5.64,12.56,12.56,12.56h24.38v10Z"/>
  <path class="st1" d="M372.38,263.12h-18c0-8.91-7.25-16.16-16.16-16.16h-7.31c-12.47,0-22.61-10.14-22.61-22.61v-8.5h18v8.5c0,2.54,2.07,4.61,4.61,4.61h7.31c18.83,0,34.16,15.32,34.16,34.16Z"/>
  <path class="st1" d="M314.28,263.12h-18c0-8.91-7.25-16.16-16.16-16.16h-6.5c-7.01,0-13.45-2.5-18.47-6.66-6.43-5.32,7.47-24.45,7.47-24.45v2.12c0,6.07,4.93,11,11,11h6.5c18.83,0,34.16,15.32,34.16,34.16Z"/>
  <path class="st1" d="M326.44,415.77h-22.94l10.36-47.54h-38.82l28.77-28.77h-6.91c-8.87,0-16.84-4.92-20.82-12.85-3.94-7.86-3.16-17.1,2.02-24.18l27.7-44.66,8.5,5.27-28.05,45.18c-3.07,4.12-3.53,9.31-1.23,13.9,2.3,4.59,6.74,7.33,11.88,7.33h31.05l-28.77,28.77h28.22c11.57,0,20.99-9.42,20.99-20.99v-8.94h10v55.52c0,17.62-14.33,31.95-31.95,31.95ZM315.91,405.77h10.53c12.1,0,21.95-9.85,21.95-21.95v-23.8c-5.52,5.09-12.9,8.21-20.99,8.21h-3.31l-8.18,37.54Z"/>
  <path class="st1" d="M323.95,389.25h-8.39v-10h8.39c13.48,0,24.44-10.96,24.44-24.44h10c0,18.99-15.45,34.44-34.44,34.44Z"/>
  <path class="st1" d="M323.95,396.09h-8.39v-10h8.39c13.48,0,24.44-10.96,24.44-24.44h10c0,18.99-15.45,34.44-34.44,34.44Z"/>
  <circle class="st1" cx="335.51" cy="267.45" r="7.72"/>
  <circle class="st1" cx="278.57" cy="267.45" r="7.72"/>
  <circle class="st1" cx="486.15" cy="266.71" r="7.72"/>
  <circle class="st1" cx="430.62" cy="266.71" r="7.72"/>
  <path class="st1" d="M390.22,382.92h-10v-21.79c0-17.41-14.17-31.58-31.58-31.58h-10.12v-10h10.12c22.92,0,41.58,18.65,41.58,41.58v21.79Z"/>
  <path class="st1" d="M447.26,380.11l-31.65-4.25s-2.54,26.07,32.34,27.03l-.69-22.78Z"/>
  <rect class="st1" x="440.83" y="329.35" width="13.62" height="10"/>
  <rect class="st1" x="380.22" y="148.05" width="10" height="315.96"/>
  <polygon class="st1" points="344.84 437.04 330.97 457.02 339.19 462.73 357.01 437.04 344.84 437.04"/>
  <polygon class="st1" points="425.6 437.04 413.43 437.04 431.26 462.73 439.47 457.02 425.6 437.04"/>
</svg>