<?xml version="1.0" encoding="UTF-8"?>
<svg id="Layer_1" xmlns="http://www.w3.org/2000/svg" version="1.1" viewBox="0 0 792 612">
  <!-- Generator: Adobe Illustrator 30.5.1, SVG Export Plug-In . SVG Version: 2.1.4 Build 3)  -->
  <defs>
    <style>
      .st0 {
        fill: #f5e7e6;
      }

      .st1 {
        fill: #009cb7;
      }
    </style>
  </defs>
  <path class="st0" d="M420.25,157.44h-70.31c-51.29,0-92.87,41.58-92.87,92.87v111.39c0,51.29,41.58,92.87,92.87,92.87h70.31c51.29,0,92.87-41.58,92.87-92.87v-111.39c0-51.29-41.58-92.87-92.87-92.87Z"/>
  <path class="st1" d="M420.25,157.44c51.29,0,92.87,41.58,92.87,92.87v111.39c0,51.29-41.58,92.87-92.87,92.87h-70.31c-51.29,0-92.87-41.58-92.87-92.87v-111.39c0-51.29,41.58-92.87,92.87-92.87h70.31M420.25,147.44h-70.31c-56.72,0-102.87,46.15-102.87,102.87v111.39c0,56.72,46.15,102.87,102.87,102.87h70.31c56.72,0,102.87-46.15,102.87-102.87v-111.39c0-56.72-46.15-102.87-102.87-102.87h0Z"/>
  <path class="st1" d="M457.17,364.66c-6.91,0-28.16-1.11-42.32-14.03-8.15-7.44-12.53-17.41-13.01-29.63l9.99-.39c.37,9.43,3.64,17.04,9.72,22.6,9.33,8.53,23.27,10.74,31.21,11.27l-5.96-25.03h25.31c5.14,0,9.58-2.74,11.88-7.33,2.3-4.59,1.84-9.79-1.23-13.9l-.37-.5-27-64.97,9.23-3.84,26.54,63.85c4.96,7.04,5.64,16.11,1.77,23.84-3.97,7.92-11.95,12.85-20.82,12.85h-12.65l5.92,24.84-5.99.32c-.17,0-.96.05-2.22.05Z"/>
  <rect class="st1" x="251.46" y="236.27" width="65.32" height="18" transform="translate(-44.23 63.43) rotate(-11.83)"/>
  <path class="st1" d="M354.12,247.72c-.5-4.29-2.64-8.12-6.03-10.8-3.34-2.64-7.51-3.85-11.73-3.39l-23.12,3.66-2.82-17.78,23.68-3.74c9.06-1.06,17.99,1.47,25.15,7.12,7.16,5.66,11.69,13.76,12.75,22.82l-17.88,2.09Z"/>
  <path class="st1" d="M412.89,244.63h-18c0-18.83,15.32-34.16,34.16-34.16h14.62v18h-14.62c-8.91,0-16.16,7.25-16.16,16.16Z"/>
  <path class="st1" d="M473.43,244.06h-18c0-18.83,15.32-34.16,34.16-34.16h23.16v18h-23.16c-8.91,0-16.16,7.25-16.16,16.16Z"/>
  <path class="st1" d="M327.4,366.13h-21.68l4.29-26.67h-13.11c-8.87,0-16.84-4.92-20.82-12.85-3.91-7.81-3.17-16.98,1.92-24.04l38.95-73.12,8.83,4.7-39.29,73.77-.23.3c-3.07,4.12-3.53,9.31-1.23,13.91s6.74,7.33,11.88,7.33h24.85l-4.29,26.67h9.94c12.16,0,20.99-7.95,20.99-18.89v-5.7h10v5.7c0,16.47-13.32,28.89-30.99,28.89Z"/>
  <circle class="st1" cx="335.67" cy="264.95" r="7.72"/>
  <circle class="st1" cx="280.53" cy="270.18" r="7.72"/>
  <circle class="st1" cx="489.06" cy="255.68" r="7.72"/>
  <circle class="st1" cx="431.97" cy="255.68" r="7.72"/>
  <path class="st1" d="M353.84,338.78c-10,0-18.13-8.13-18.13-18.13v-4.57h10v4.57c0,4.48,3.65,8.13,8.13,8.13s8.13-3.65,8.13-8.13v-4.57h10v4.57c0,10-8.13,18.13-18.13,18.13Z"/>
  <rect class="st1" x="422.19" y="367.73" width="29.63" height="10" transform="translate(-120.67 510.18) rotate(-54.31)"/>
  <path class="st1" d="M390.22,351.7h-10v-7.91c0-16.32,13.28-29.6,29.6-29.6h21.39v10h-21.39c-10.81,0-19.6,8.79-19.6,19.6v7.91Z"/>
  <path class="st1" d="M329.84,391.09h-5v-27.39h10v16.45c8.08-3.07,14-13.1,14-21.65v-24.72h10v24.72c0,15.38-12.4,32.59-29,32.59Z"/>
  <rect class="st1" x="380.1" y="148.05" width="10" height="315.96"/>
  <polygon class="st1" points="344.84 437.04 330.97 457.02 339.19 462.73 357.02 437.04 344.84 437.04"/>
  <polygon class="st1" points="425.6 437.04 413.43 437.04 431.26 462.73 439.47 457.02 425.6 437.04"/>
</svg>