<?xml version="1.0" encoding="UTF-8"?>
<svg id="Layer_1" xmlns="http://www.w3.org/2000/svg" version="1.1" viewBox="0 0 792 612">
  <!-- Generator: Adobe Illustrator 30.5.1, SVG Export Plug-In . SVG Version: 2.1.4 Build 3)  -->
  <defs>
    <style>
      .st0 {
        fill: #f5e7e6;
      }

      .st1 {
        fill: #009cb7;
      }
    </style>
  </defs>
  <path class="st1" d="M420.25,147.44h-70.31c-56.72,0-102.87,46.15-102.87,102.87v111.39c0,56.72,46.15,102.87,102.87,102.87h70.31c56.72,0,102.87-46.15,102.87-102.87v-111.39c0-56.72-46.15-102.87-102.87-102.87h0Z"/>
  <path class="st0" d="M420.25,157.44h-70.31c-51.29,0-92.87,41.58-92.87,92.87v111.39c0,51.29,41.58,92.87,92.87,92.87h70.31c51.29,0,92.87-41.58,92.87-92.87v-111.39c0-51.29-41.58-92.87-92.87-92.87Z"/>
  <rect class="st1" x="380.22" y="148.05" width="10" height="315.96"/>
  <path class="st1" d="M441.33,397.48h-18.22c-9.92,0-18-8.08-18-18v-42.07l12.63,16.39c7.52,9.76,19.37,15.59,31.69,15.59h6.53l-1.03-40.27h21.18c5.41,0,10.09-2.89,12.51-7.72,2.43-4.84,1.94-10.31-1.29-14.65l-.16-.23-25.15-38.04,8.34-5.52,25.08,37.92c5.38,7.31,6.2,16.87,2.13,24.99-4.1,8.17-12.32,13.24-21.45,13.24h-10.92l1.03,40.27h-16.79c-2.73,0-5.44-.23-8.1-.67v18.75ZM415.11,365.74v13.74c0,4.41,3.59,8,8,8h8.22v-11.51c-5.99-2.33-11.51-5.8-16.22-10.23Z"/>
  <path class="st1" d="M371.11,269.14h-18c0-9.45-7.69-17.14-17.14-17.14h-81.42v-18h81.42c19.37,0,35.14,15.76,35.14,35.14Z"/>
  <path class="st1" d="M417.26,269.14h-18c0-19.37,15.76-35.14,35.13-35.14h12.19v18h-12.19c-9.45,0-17.13,7.69-17.13,17.14Z"/>
  <path class="st1" d="M456.06,268.49c0-19.37,15.76-35.13,35.13-35.13h7.42v18h-7.42c-9.45,0-17.13,7.69-17.13,17.13"/>
  <path class="st1" d="M324.77,409.7h-12.21v-40.69h-37.94l33.21-38.17,7.54,6.56-18.8,21.6h29.19c12.13,0,22-9.87,22-22v-5.92h10v45.61c0,18.2-14.8,33-33,33ZM322.57,399.7h2.21c12.68,0,23-10.32,23-23v-16.48c-5.74,5.44-13.49,8.78-22,8.78h-3.21v30.69Z"/>
  <path class="st1" d="M311.61,339.12h-17.53c-9.14,0-17.36-5.07-21.45-13.24-4.05-8.08-3.26-17.59,2.05-24.88l33.93-57.79,8.62,5.06-34.2,58.26-.17.22c-3.24,4.34-3.72,9.81-1.29,14.65,2.43,4.84,7.1,7.72,12.51,7.72h17.53c8.82,0,16-7.18,16-16v-6.74h10v6.74c0,14.34-11.66,26-26,26Z"/>
  <path class="st1" d="M322.18,390.86v-10c14.11,0,25.59-11.48,25.59-25.59h10c0,19.62-15.97,35.59-35.59,35.59Z"/>
  <circle class="st1" cx="276.2" cy="269.14" r="7.72"/>
  <path class="st1" d="M390.22,394.05h-10v-22.64c0-18.2-14.8-33-33-33h-8.51v-10h8.51c23.71,0,43,19.29,43,43v22.64Z"/>
  <path class="st1" d="M390.22,394.05h-10v-22.64c0-23.71,19.29-43,43-43h8.51v10h-8.51c-18.2,0-33,14.8-33,33v22.64Z"/>
  <rect class="st1" x="458.66" y="333.92" width="10" height="3.17" transform="translate(-85.88 175.65) rotate(-19.67)"/>
  <circle class="st1" cx="492.43" cy="270.39" r="7.72"/>
  <g>
    <circle class="st1" cx="335.87" cy="269.14" r="7.72"/>
    <circle class="st1" cx="434.58" cy="270.39" r="7.72"/>
  </g>
  <polygon class="st1" points="344.84 437.04 330.97 457.02 339.19 462.73 357.02 437.04 344.84 437.04"/>
  <polygon class="st1" points="425.6 437.04 413.43 437.04 431.26 462.73 439.47 457.02 425.6 437.04"/>
  <rect class="st1" x="412.36" y="380.04" width="20.87" height="10"/>
</svg>