<?xml version="1.0" encoding="UTF-8"?>
<svg id="Layer_1" xmlns="http://www.w3.org/2000/svg" version="1.1" viewBox="0 0 792 612">
  <!-- Generator: Adobe Illustrator 30.5.1, SVG Export Plug-In . SVG Version: 2.1.4 Build 3)  -->
  <defs>
    <style>
      .st0 {
        fill: #f5e7e6;
      }

      .st1 {
        fill: #009cb7;
      }
    </style>
  </defs>
  <path class="st0" d="M420.25,157.44h-70.31c-51.29,0-92.87,41.58-92.87,92.87v111.39c0,51.29,41.58,92.87,92.87,92.87h70.31c51.29,0,92.87-41.58,92.87-92.87v-111.39c0-51.29-41.58-92.87-92.87-92.87Z"/>
  <path class="st1" d="M420.25,157.44c51.29,0,92.87,41.58,92.87,92.87v111.39c0,51.29-41.58,92.87-92.87,92.87h-70.31c-51.29,0-92.87-41.58-92.87-92.87v-111.39c0-51.29,41.58-92.87,92.87-92.87h70.31M420.25,147.44h-70.31c-56.72,0-102.87,46.15-102.87,102.87v111.39c0,56.72,46.15,102.87,102.87,102.87h70.31c56.72,0,102.87-46.15,102.87-102.87v-111.39c0-56.72-46.15-102.87-102.87-102.87h0Z"/>
  <path class="st1" d="M455.51,355.36l-1.28-26.25h21.3c5.41,0,10.09-2.89,12.51-7.72,2.42-4.84,1.94-10.31-1.29-14.65l-.33-.51-26.08-45.6,8.68-4.96,25.94,45.35c5.29,7.29,6.08,16.78,2.03,24.85-4.1,8.17-12.32,13.24-21.45,13.24h-10.8l.77,15.76-9.99.49Z"/>
  <path class="st1" d="M356.22,248.96c-.98-4.17-3.41-7.4-7.02-9.34-3.76-2.02-8.48-2.5-13.3-1.38l-33.09,7.76c-20.04,4.7-37.16-2.81-50.59-11.43-2.06-1.32,4.48-18.7,4.48-18.7,16.91,11.98,29.08,15.63,42,12.6l33.09-7.76c9.08-2.13,18.29-1.05,25.91,3.04,8.19,4.39,13.89,11.88,16.05,21.09l-17.53,4.11Z"/>
  <path class="st1" d="M414.53,256.69l-17.68-3.4c3.65-19.02,22.1-31.52,41.13-27.88l11.97,2.3-3.39,17.68-11.97-2.3c-9.28-1.79-18.27,4.32-20.06,13.59Z"/>
  <path class="st1" d="M478,264.03l-17.68-3.4c3.65-19.02,22.1-31.53,41.13-27.88l.45.1,19.23,4.73-4.3,17.48-18.98-4.67c-9.21-1.66-18.08,4.42-19.85,13.63Z"/>
  <path class="st1" d="M322.37,362.61c-13.52,0-24.26-2.65-25.08-2.85l-6.53-1.65,16.01-26.58,8.57,5.16-8.82,14.65c10.75,1.63,32.04,3.23,46.88-6.22l5.37,8.43c-11.15,7.11-24.79,9.06-36.39,9.06Z"/>
  <path class="st1" d="M311.04,339.11h-17.53c-9.14,0-17.36-5.07-21.45-13.24-4.05-8.08-3.26-17.59,2.05-24.88l38.68-65.5,8.61,5.08-38.94,65.95-.16.22c-3.24,4.34-3.72,9.81-1.29,14.65s7.1,7.72,12.51,7.72h17.53c8.82,0,16-7.18,16-16v-6.74h10v6.74c0,14.33-11.66,26-26,26Z"/>
  <circle class="st1" cx="275.64" cy="270.39" r="7.72"/>
  <path class="st1" d="M390.22,370.86h-10v-22.64c0-23.71,19.29-43,43-43h8.51v10h-8.51c-18.19,0-33,14.8-33,33v22.64Z"/>
  <circle class="st1" cx="491.84" cy="270.39" r="7.72"/>
  <circle class="st1" cx="335.29" cy="270.39" r="7.72"/>
  <circle class="st1" cx="433.99" cy="270.39" r="7.72"/>
  <path class="st1" d="M468.91,387.45l-9.69-2.47,6.95-27.31h-36.43c-14.76,0-26.78-12.01-26.78-26.78v-15.42h10v15.42c0,9.25,7.53,16.78,16.78,16.78h49.3l-10.12,39.77Z"/>
  <path class="st1" d="M340.57,409.51c-12.68,0-22.99-10.31-22.99-22.99v-27.14h10v27.14c0,7.16,5.83,12.99,12.99,12.99s12.99-5.83,12.99-12.99v-36.39c-15.97-6.34-26.83-22.06-26.83-39.46v-4.3h10v4.3c0,14.27,9.56,27.06,23.25,31.11l.16.05,3.42,1.14v43.55c0,12.68-10.31,22.99-22.99,22.99Z"/>
  <rect class="st1" x="324.64" y="374" width="30.47" height="10"/>
  <path class="st1" d="M339.38,384.19h0v17.95s-16.97-1.75-12.07-21.37"/>
  <rect class="st1" x="380.22" y="148.05" width="10" height="315.96"/>
  <polygon class="st1" points="344.84 437.04 330.97 457.02 339.19 462.73 357.02 437.04 344.84 437.04"/>
  <polygon class="st1" points="425.6 437.04 413.43 437.04 431.26 462.73 439.47 457.02 425.6 437.04"/>
</svg>