<?xml version="1.0" encoding="UTF-8"?>
<svg id="Silver" xmlns="http://www.w3.org/2000/svg" version="1.1" viewBox="0 0 138.92 150.93">
  <!-- Generator: Adobe Illustrator 30.3.0, SVG Export Plug-In . SVG Version: 2.1.3 Build 182)  -->
  <defs>
    <style>
      .st0 {
        fill: #f3e7e6;
      }

      .st1 {
        fill: #f5e7e6;
      }

      .st2 {
        fill: #009cb7;
      }
    </style>
  </defs>
  <path class="st0" d="M134.26,114.76c3.1-7.32,4.67-15.08,4.67-23.05v-4.48c0-.5-.32-.94-.79-1.1l-15.64-5.19,15.64-5.19c.47-.16.79-.61.79-1.1v-15.45c0-7.98-1.57-15.73-4.67-23.05-2.98-7.05-7.25-13.38-12.67-18.81-5.43-5.43-11.75-9.69-18.81-12.67-7.32-3.1-15.08-4.67-23.05-4.67h-20.52c-7.98,0-15.73,1.57-23.05,4.67-7.05,2.98-13.38,7.25-18.81,12.67-5.43,5.43-9.69,11.75-12.67,18.81C1.57,43.47,0,51.22,0,59.2v15.24c0,.5.32.94.79,1.1l16.24,5.4L.79,86.34c-.47.16-.79.61-.79,1.1v4.27c0,7.98,1.57,15.73,4.67,23.05v.02c2.98,7.05,7.25,13.38,12.67,18.81,5.43,5.43,11.75,9.69,18.81,12.67,7.32,3.1,15.08,4.67,23.05,4.67h20.52c7.98,0,15.73-1.57,23.05-4.67,7.05-2.98,13.38-7.25,18.81-12.67,5.43-5.43,9.69-11.75,12.67-18.81v-.02Z"/>
  <line class="st0" x1="130.02" y1="145.62" x2="130.02" y2="145.62"/>
  <g>
    <path class="st1" d="M79.25,34.1h-19.58c-14.28,0-25.86,11.58-25.86,25.86v31.02c0,14.28,11.58,25.86,25.86,25.86h19.58c14.28,0,25.86-11.58,25.86-25.86v-31.02c0-14.28-11.58-25.86-25.86-25.86Z"/>
    <path class="st2" d="M112.44,80.7l22.56-7.81c.45-.16.75-.58.75-1.05v-11.88c0-7.61-1.5-15.01-4.45-22-2.85-6.73-6.92-12.77-12.09-17.95-5.18-5.18-11.22-9.25-17.95-12.09-6.98-2.95-14.39-4.45-22-4.45h-19.58c-7.61,0-15.01,1.5-22,4.45-6.73,2.85-12.77,6.92-17.95,12.09-5.18,5.18-9.25,11.22-12.09,17.95-2.95,6.98-4.45,14.39-4.45,22v11.68c0,.47.3.9.75,1.05l23.13,8.01-23.13,8.01c-.45.16-.75.58-.75,1.05v1.21c0,7.61,1.5,15.01,4.45,22,2.85,6.73,6.92,12.77,12.09,17.95,5.18,5.18,11.22,9.25,17.95,12.09,6.98,2.95,14.39,4.45,22,4.45h19.58c7.61,0,15.01-1.5,22-4.45,6.73-2.85,12.77-6.92,17.95-12.09,5.18-5.18,9.25-11.22,12.09-17.95,2.95-6.98,4.45-14.39,4.45-22v-1.41c0-.47-.3-.9-.75-1.05l-22.56-7.81ZM105.11,90.97c0,14.28-11.58,25.86-25.86,25.86h-19.58c-14.28,0-25.86-11.58-25.86-25.86v-31.02c0-14.28,11.58-25.86,25.86-25.86h19.58c14.28,0,25.86,11.58,25.86,25.86v31.02Z"/>
    <g>
      <path class="st1" d="M12.83,49.64c.04-.4.26-.58.66-.53l2.23.24c.38.04.58.26.53.66l-.61,5.55c-.04.38.13.62.53.66l.64.07c.38.04.62-.15.66-.53l.43-3.82c.04-.4.26-.58.66-.53l2.23.24c.38.04.58.26.53.66l-.43,3.82c-.04.38.13.62.53.66l4.07.44c.38.04.58.26.53.66l-.25,2.35c-.04.38-.28.57-.66.53l-12.76-1.38c-.4-.04-.57-.28-.53-.66l.99-9.1Z"/>
      <path class="st1" d="M30.06,40.92c.59-.05.98.47.73,1.04l-.91,2.09c-.08.18-.24.31-.44.31l-4.53.3c-.07.01-.13.05-.16.11l-.32.74c-.14.33,0,.67.32.82l2.9,1.27c.33.14.47.49.32.82l-.9,2.06c-.14.33-.49.47-.82.32l-11.72-5.11c-.33-.14-.47-.49-.32-.82l1.76-4.02c1.43-3.27,3.4-3.98,6.41-2.67,1.71.75,2.72,1.69,2.99,2.97.02.1.11.16.21.16l4.47-.37ZM18.76,43.04c-.14.33,0,.67.32.82l1.36.59c.33.14.67,0,.82-.32l.41-.94c.38-.88.47-1.37-.67-1.87s-1.44-.1-1.83.78l-.41.94Z"/>
      <path class="st1" d="M37.91,32.95c.32.3.36.61.09.9l-1.53,1.64c-.26.28-.56.3-.85.03l-1.27-1.19c-.29-.27-.58-.26-.85.03l-1.18,1.26c-.26.28-.26.58.03.85l1.27,1.19c.29.27.3.56.03.85l-1.53,1.64c-.26.28-.59.27-.91-.03l-6.21-5.8c-1.85-1.72-3.53-3.85-.45-7.15,3.08-3.3,5.32-1.75,7.16-.03l6.21,5.8ZM29.34,29.67c-.7-.66-1.15-.88-2.05.08-.9.97-.65,1.4.06,2.05l1.6,1.49c.28.26.59.25.85-.03l1.18-1.26c.26-.31.25-.59-.04-.86l-1.58-1.48Z"/>
      <path class="st1" d="M35.56,18.76c.3-.16.56-.14.84.07l5.56,4.59c.16.12.28,0,.18-.17l-3.06-5.71c-.19-.35-.09-.63.25-.81l1.98-1.06c.35-.19.62-.11.81.25l6.07,11.3c.18.34.11.62-.25.81l-2.6,1.39c-.3.16-.56.14-.84-.07l-5.56-4.59c-.16-.12-.28,0-.18.17l3.06,5.71c.18.34.11.62-.25.81l-1.98,1.06c-.34.18-.63.09-.81-.25l-6.07-11.3c-.19-.35-.09-.63.25-.81l2.6-1.39Z"/>
      <path class="st1" d="M60.51,25.07c.34.36.21.7-.27.77l-2.97.44c-.32.05-.55-.04-.77-.29l-3.02-3.4c-.1-.11-.22-.09-.28.04l-.65,1.23c-.05.09-.06.17-.04.27l.33,2.2c.06.38-.11.62-.51.68l-2.26.34c-.38.06-.63-.13-.68-.51l-1.89-12.69c-.06-.4.13-.63.51-.68l2.26-.34c.4-.06.62.11.68.51l.59,3.99c.03.2.17.22.25.04l2.48-4.75c.14-.28.34-.44.66-.48l2.93-.44c.5-.07.7.22.49.68l-3.18,6.11c-.04.11-.05.19.04.28l5.31,6Z"/>
      <path class="st1" d="M74.85,21.43c.24.28.24.58-.04.84-.28.26-.62.56-.92.8-.1.1-.1.2-.02.28l.42.48c.28.3.24.6-.06.84l-1.34,1.04c-.3.24-.6.2-.84-.1l-.44-.54c-.08-.1-.18-.1-.28-.04-1.12.74-2.41,1.06-3.59,1.07-1.88,0-3.27-1.04-3.87-2.24-.76-1.6-.34-3.77,1.82-5.42.12-.08.14-.18.04-.28-.68-.84-1.41-2.18-1.01-3.93.36-1.6,1.7-3.13,4.43-2.87,2.45.24,3.79,2.1,3.39,4.21-.26,1.18-.76,2.29-2.2,3.39-.1.08-.12.18-.02.28l1.26,1.44c.08.1.18.1.28.02.28-.22.62-.5.88-.76.3-.26.58-.26.84.04l1.26,1.44ZM69.25,22.66c.12-.08.12-.18.04-.28-.36-.42-.98-1.16-1.34-1.6-.08-.08-.18-.1-.26-.04-.7.52-1.32,1.16-.72,1.93.42.54,1.46.5,2.29,0ZM68.19,16.61c.08.1.18.12.28.06.58-.38,1.06-.88,1.16-1.32.08-.42-.18-1.14-.88-1.22-.68-.08-1.1.36-1.2.82-.1.48-.02.74.64,1.66Z"/>
      <path class="st1" d="M83.38,12.68c.4.06.57.28.51.68l-1.29,9.29c-.05.38.14.63.51.68l4.43.62c.4.06.57.28.51.68l-.31,2.22c-.06.4-.28.57-.68.51l-7.84-1.09c-.38-.05-.57-.3-.51-.68l1.77-12.71c.06-.4.3-.57.68-.51l2.22.31Z"/>
      <path class="st1" d="M98.88,27.07c-.52,1.22-2.18,4.36-6.55,2.48-4.36-1.88-3.22-5.25-2.7-6.46l1.98-4.6c.52-1.22,2.18-4.36,6.55-2.48,4.36,1.88,3.22,5.25,2.7,6.46l-1.98,4.6ZM97.28,22.08c.61-1.42.89-2.32-.47-2.91-1.36-.59-1.83.24-2.44,1.66l-1.14,2.65c-.61,1.42-.89,2.32.47,2.91,1.36.59,1.83-.24,2.44-1.66l1.14-2.65Z"/>
      <path class="st1" d="M108.4,22.14c.31.26.33.54.07.85l-5.08,5.99c-1,1.18-1.53,1.96-.4,2.92s1.82.31,2.82-.87l5.08-5.99c.26-.31.56-.32.85-.07l1.71,1.45c.31.26.33.54.07.85l-5.77,6.81c-.86,1.01-3.37,3.53-6.99.46-3.62-3.07-1.54-5.96-.69-6.97l5.77-6.81c.26-.31.56-.32.85-.07l1.71,1.45Z"/>
      <path class="st1" d="M117.92,32c.24.32.2.6-.11.84l-10.21,7.77c-.3.23-.6.2-.84-.11l-1.34-1.76c-.23-.3-.19-.61.11-.84l10.21-7.77c.32-.24.61-.19.84.11l1.34,1.76Z"/>
      <path class="st1" d="M124.54,44.29c.17.37.07.63-.3.8l-2.04.93c-.35.16-.63.07-.8-.3l-2.01-4.42c-.16-.35-.43-.47-.8-.3l-.58.27c-.35.16-.46.45-.3.8l1.28,2.83c.17.37.07.63-.3.8l-2.04.93c-.35.16-.63.07-.8-.3l-1.28-2.83c-.16-.35-.43-.47-.8-.3l-.58.27c-.35.16-.46.45-.3.8l2.01,4.42c.17.37.07.63-.3.8l-2.04.93c-.37.17-.63.07-.8-.3l-3.48-7.67c-.16-.35-.05-.64.3-.8l11.69-5.3c.36-.17.64-.05.8.3l3.48,7.67Z"/>
      <path class="st1" d="M125.9,47.96c.07.29-.04.46-.32.54l-1.35.37c-1.04.26-1.99,0-2.37-1.06-.06-.18.09-.3.28-.21.55.27.93.24,1.21.18.09-.02.13-.09.11-.18l-.12-.52c-.07-.27.05-.47.32-.54l1.35-.37c.29-.07.47.05.54.32l.36,1.47Z"/>
      <path class="st1" d="M121.95,57.2c-.13-.39.03-.61.42-.72.8-.23,1.24-.95,1.13-1.89-.09-.78-.61-1.2-1.05-1.07-1.52.46-.74,6.75-5.32,7.29-.6.07-4.2-.19-4.75-4.91-.49-4.18,2.15-5.4,3.7-5.68.36-.06.6.09.72.44l.76,2.19c.13.39-.03.63-.44.72-.95.19-1.42.99-1.31,1.93.11.98.78,1.63,1.3,1.44,1.65-.58.57-6.53,5.15-7.06.6-.09,4.16-.14,4.68,4.32.48,4.1-2.08,5.37-3.5,5.66-.36.06-.6-.09-.72-.44l-.76-2.21Z"/>
    </g>
    <g>
      <path class="st2" d="M94.22,65.02h.01c0-2.63,2.14-4.77,4.77-4.77h2.07v-5.01h-2.07c-5.39,0-9.78,4.39-9.78,9.78h1.66l7,10.59.05.06c.9,1.21,1.04,2.73.36,4.08-.68,1.35-1.98,2.15-3.48,2.15h-5.9l.29,11.21h-1.82c-3.43,0-6.73-1.62-8.82-4.34l-2.56-3.32c1.23-.61,2.62-.96,4.09-.96h2.37v-2.78h-2.37c-3.69,0-6.99,1.68-9.19,4.31V31.48h-2.78v54.53c-2.2-2.63-5.5-4.31-9.19-4.31h-2.37v2.78h2.37s.09,0,.14,0c-.2,3.19-2.87,5.73-6.11,5.73h-8.13l4.85-5.57c3.68-.34,6.58-3.44,6.58-7.21v-1.88h-2.78v1.88c0,2.46-2,4.46-4.46,4.46h-4.88c-1.51,0-2.81-.8-3.48-2.15-.68-1.35-.54-2.87.36-4.08l.05-.06,8.91-15.18h5.83c2.63,0,4.77,2.14,4.77,4.77h5.01c0-5.39-4.39-9.78-9.78-9.78h-22.67v5.01h13.61l-8.01,13.64c-1.48,2.03-1.7,4.68-.57,6.93,1.14,2.27,3.43,3.69,5.97,3.69h1.83l-7.24,8.32h10.56v11.33h3.4c5.07,0,9.19-4.12,9.19-9.19v-10.18c3.63,1.23,6.25,4.67,6.25,8.7v25.79h2.78v-19.48h0v-6.3c0-3.21,1.65-6.03,4.15-7.68v9.92c0,2.76,2.25,5.01,5.01,5.01h5.07v-5.22c.74.12,1.5.19,2.26.19h4.67l-.29-11.21h3.04c2.54,0,4.83-1.41,5.97-3.69,1.13-2.26.91-4.92-.59-6.96l-5.97-9.02ZM52.94,93.01c2.29,0,4.38-.87,5.96-2.29-.7,3.16-3.5,5.54-6.85,5.59v-3.3h.89ZM52.66,101.56h-.61v-2.47c2.71-.03,5.17-1.15,6.94-2.95-.48,3.06-3.13,5.41-6.33,5.41ZM77.82,92.1c1.31,1.23,2.85,2.2,4.52,2.85v1.13h-4.51c0-.05,0-.1,0-.16v-3.82Z"/>
      <path class="st2" d="M83.19,60.43h3.39v-5.01h-3.39c-5.39,0-9.78,4.39-9.78,9.78h5.01c0-2.63,2.14-4.77,4.77-4.77Z"/>
      <circle class="st2" cx="39.14" cy="65.2" r="2.15" transform="translate(-13.93 10.74) rotate(-13.28)"/>
      <circle class="st2" cx="99.35" cy="65.55" r="2.15" transform="translate(2.35 134.52) rotate(-68.83)"/>
      <circle class="st2" cx="55.75" cy="65.2" r="2.15" transform="translate(-9.72 9.77) rotate(-9.22)"/>
      <circle class="st2" cx="83.24" cy="65.55" r="2.15"/>
      <polygon class="st2" points="54.39 117.52 56.68 119.11 61.64 111.96 58.25 111.96 54.39 117.52"/>
      <polygon class="st2" points="77.35 111.96 82.32 119.11 84.6 117.52 80.74 111.96 77.35 111.96"/>
    </g>
    <g>
      <path class="st1" d="M24.21,102.14c.07.23-.02.39-.27.46l-7.88,2.27c-.23.07-.4-.01-.47-.24l-.37-1.29c-.06-.22.03-.39.27-.46l7.88-2.27c.25-.07.41.02.47.24l.37,1.29Z"/>
      <path class="st1" d="M23.21,106.93c.23-.11.3-.27.2-.49l-.72-1.55c-.1-.21-.03-.39.2-.49l1.3-.6c.23-.11.4-.04.5.17l2.62,5.65c.1.22.04.39-.2.49l-1.3.6c-.22.1-.4.05-.5-.17l-.72-1.55c-.1-.21-.27-.28-.5-.17l-5.44,2.52c-.22.1-.4.05-.5-.17l-.57-1.24c-.1-.21-.03-.39.2-.49l5.44-2.52Z"/>
      <path class="st1" d="M24.65,120.61c-.23.17-.42.16-.57-.04l-.81-1.1c-.14-.19-.11-.37.09-.52l.9-.66c.21-.15.24-.33.09-.52l-.62-.84c-.14-.19-.32-.22-.53-.07l-.9.66c-.21.15-.38.13-.53-.07l-.81-1.1c-.14-.19-.09-.39.14-.55l4.38-3.21c1.3-.96,2.83-1.77,4.45.43s.38,3.42-.92,4.37l-4.38,3.21ZM27.79,115.71c.5-.36.69-.61.22-1.26-.48-.65-.77-.53-1.27-.17l-1.13.83c-.2.14-.23.34-.09.52l.62.84c.15.19.33.21.54.06l1.12-.82Z"/>
      <path class="st1" d="M33.71,117.73c.18.17.18.34,0,.53l-4.1,4.37c-.17.18-.17.37,0,.53l1.98,1.86c.18.17.18.34,0,.53l-.98,1.05c-.18.19-.35.2-.53.03l-3.5-3.29c-.17-.16-.17-.35,0-.53l5.61-5.97c.18-.19.36-.19.53-.03l.99.93Z"/>
      <path class="st1" d="M38.91,121.98c.2.14.22.32.08.52l-4.72,6.7c-.14.2-.32.24-.52.1l-1.09-.77c-.19-.13-.22-.33-.08-.52l4.72-6.7c.15-.21.33-.24.52-.1l1.09.77Z"/>
      <path class="st1" d="M41.86,133.36c-.13.25-.3.33-.52.22l-1.22-.61c-.21-.1-.27-.28-.15-.51l.5-.99c.12-.23.06-.4-.15-.51l-.93-.47c-.21-.1-.38-.05-.5.18l-.5.99c-.12.23-.28.29-.5.18l-1.22-.61c-.21-.1-.26-.3-.13-.55l2.45-4.85c.73-1.44,1.72-2.86,4.16-1.63,2.44,1.23,1.89,2.87,1.16,4.32l-2.45,4.85ZM42.43,127.57c.28-.55.34-.86-.38-1.22-.72-.36-.93-.13-1.21.42l-.63,1.25c-.11.22-.05.4.15.51l.93.47c.22.1.39.04.5-.19l.62-1.23Z"/>
      <path class="st1" d="M48.97,126.79c.2.05.31.18.33.4l.49,4.55c.02.12.12.12.15,0l1.08-3.99c.07-.25.23-.34.45-.28l1.32.36c.23.06.32.22.25.47l-2.14,7.91c-.06.23-.22.34-.45.28l-1.73-.47c-.2-.05-.31-.18-.33-.4l-.49-4.55c-.02-.12-.12-.12-.15,0l-1.08,3.99c-.06.23-.22.34-.45.28l-1.32-.36c-.22-.06-.32-.23-.25-.47l2.14-7.91c.07-.25.23-.34.45-.28l1.73.47Z"/>
      <path class="st1" d="M62.49,131.52c-.24.05-.36-.06-.4-.32-.09-.53-.49-.86-1.06-.86-.47,0-.77.29-.72.59.17,1,4.02.97,4.02,3.92,0,.38-.41,2.65-3.3,2.65-2.56,0-3.1-1.77-3.16-2.77-.01-.23.1-.37.32-.42l1.37-.32c.24-.05.38.06.4.33.05.61.5.97,1.07.97s1.03-.37.96-.72c-.23-1.09-3.89-.85-3.89-3.79-.01-.38.21-2.65,2.93-2.65,2.51,0,3.09,1.72,3.16,2.64.01.23-.1.37-.32.42l-1.39.32Z"/>
      <path class="st1" d="M69.12,128.62c2.17,0,3.04.97,3.04,3.07s-.88,3.07-3.04,3.07h-.58c-.23,0-.37.13-.37.38v2.05c0,.26-.12.38-.36.38h-1.36c-.23,0-.36-.14-.36-.38v-8.19c0-.26.12-.38.36-.4h2.68ZM69.19,132.57c.58,0,.88-.08.88-.87s-.29-.87-.88-.87h-.66c-.23,0-.37.13-.37.38v.97c0,.24.13.38.37.38h.66Z"/>
      <path class="st1" d="M79.33,128.62c.24,0,.36.13.36.38v1.43c0,.24-.12.38-.36.38h-2.95c-.23,0-.36.13-.36.38v.41c0,.24.13.38.36.38h1.89c.24,0,.36.13.36.38v1.43c0,.24-.12.38-.36.38h-1.89c-.23,0-.36.13-.36.38v.41c0,.24.13.38.36.38h2.95c.24,0,.36.13.36.38v1.43c0,.26-.12.38-.36.38h-5.11c-.23,0-.37-.14-.37-.38v-8.2c0-.26.13-.38.37-.38h5.11Z"/>
      <path class="st1" d="M81.32,131.28c-.1-.84-.21-3.11,2.65-3.47,2.57-.32,3.2,1.45,3.37,2.42.03.18-.06.33-.22.39l-1.3.48c-.25.08-.46-.07-.53-.33-.13-.55-.39-.86-1.04-.77-.89.11-.88.72-.76,1.7l.23,1.83c.12.98.26,1.57,1.15,1.46.66-.08.8-.44.8-1.03,0-.27.18-.46.43-.43l1.4.15c.17.02.3.14.31.34.07.97-.1,2.84-2.67,3.16-2.86.36-3.31-1.87-3.42-2.71l-.4-3.18Z"/>
      <path class="st1" d="M89.83,126.82c.23-.07.39.03.45.27l2.2,7.9c.07.23-.01.4-.25.47l-1.29.36c-.22.06-.39-.04-.45-.27l-2.2-7.9c-.07-.25.03-.41.25-.47l1.29-.36Z"/>
      <path class="st1" d="M100.52,131.72c.12.26.07.45-.16.55l-1.24.56c-.21.09-.39.03-.49-.2l-.45-1.02c-.1-.23-.27-.3-.49-.2l-.96.43c-.21.09-.28.27-.18.5l.45,1.02c.1.23.05.4-.18.5l-1.24.56c-.21.09-.4,0-.51-.25l-2.22-4.96c-.66-1.47-1.14-3.14,1.36-4.26,2.5-1.12,3.42.35,4.08,1.82l2.22,4.96ZM96.4,127.62c-.25-.56-.45-.81-1.19-.48-.73.33-.69.64-.43,1.2l.57,1.27c.1.22.28.3.49.2l.96-.43c.22-.11.28-.28.17-.51l-.56-1.26Z"/>
      <path class="st1" d="M99.61,122.25c.2-.14.37-.1.52.11l3.41,4.93c.14.2.33.24.52.11l2.23-1.54c.2-.14.37-.1.52.11l.82,1.18c.15.21.12.39-.08.52l-3.95,2.73c-.19.13-.38.09-.52-.11l-4.66-6.74c-.15-.21-.11-.39.08-.52l1.12-.78Z"/>
      <path class="st1" d="M105.68,120.84c-.18-.19-.35-.2-.53-.03l-1.24,1.17c-.17.16-.36.15-.53-.03l-.98-1.04c-.18-.19-.17-.37,0-.53l4.53-4.27c.18-.17.35-.16.53.03l.98,1.04c.17.18.18.36,0,.53l-1.24,1.17c-.17.16-.18.34,0,.53l4.11,4.36c.17.18.18.36,0,.53l-.99.93c-.17.16-.36.15-.53-.03l-4.11-4.36Z"/>
      <path class="st1" d="M108.9,113.52c.15-.19.33-.21.53-.05l6.46,5.05c.19.15.23.33.08.52l-.82,1.05c-.14.18-.34.2-.53.05l-6.46-5.05c-.2-.16-.22-.34-.08-.52l.82-1.05Z"/>
      <path class="st1" d="M112.79,107.31c.12-.21.29-.25.52-.13l1.24.71c.21.12.27.3.15.51l-1.47,2.55c-.12.2-.07.38.15.51l.36.2c.21.12.4.08.52-.13l.94-1.64c.12-.21.29-.25.52-.13l1.24.71c.21.12.27.3.15.51l-.94,1.64c-.12.2-.07.38.15.51l.36.2c.21.12.4.08.52-.13l1.47-2.55c.12-.21.29-.25.52-.13l1.24.71c.22.13.27.3.15.51l-2.54,4.43c-.12.2-.3.25-.51.13l-7.11-4.08c-.22-.13-.27-.31-.15-.51l2.54-4.43Z"/>
      <path class="st1" d="M117.85,102.79c-.03.25-.18.33-.43.28-.52-.09-.97.19-1.15.73-.15.45.03.82.33.87,1,.16,2.21-3.49,5-2.55.36.12,2.38,1.24,1.46,3.97-.82,2.42-2.67,2.38-3.63,2.11-.22-.06-.32-.21-.3-.43l.14-1.41c.03-.25.18-.34.44-.27.6.15,1.08-.16,1.26-.7.19-.57-.02-1.1-.37-1.14-1.11-.13-2.05,3.42-4.84,2.48-.37-.11-2.45-1.04-1.58-3.63.8-2.38,2.61-2.38,3.51-2.16.22.06.32.21.3.43l-.14,1.42Z"/>
    </g>
  </g>
</svg>